<?xml version="1.0" standalone="no"?>
<!DOCTYPE svg PUBLIC "-//W3C//DTD SVG 20010904//EN"
 "http://www.w3.org/TR/2001/REC-SVG-20010904/DTD/svg10.dtd">
<svg version="1.0" xmlns="http://www.w3.org/2000/svg"
 width="150.000000pt" height="150.000000pt" viewBox="0 0 150.000000 150.000000"
 preserveAspectRatio="xMidYMid meet">
<metadata>
Created by potrace 1.14, written by Peter Selinger 2001-2017
</metadata>
<g transform="translate(0.000000,150.000000) scale(0.100000,-0.100000)"
fill="#000000" stroke="none">
<path d="M115 1485 c-49 -17 -90 -62 -104 -112 -15 -53 -15 -1194 0 -1248 14
-50 64 -100 114 -114 55 -15 1195 -15 1250 0 50 14 100 64 114 114 15 55 15
1195 0 1250 -14 50 -64 100 -114 114 -27 7 -231 11 -630 11 -482 -1 -597 -3
-630 -15z"/>
</g>
</svg>
